<mxfile host="app.diagrams.net" agent="Mozilla/5.0 (X11; Linux x86_64; rv:133.0) Gecko/20100101 Firefox/133.0" version="25.0.3">
  <diagram name="Page-1" id="UJHtBCHH4Qztdit4Y1LD">
    <mxGraphModel dx="1674" dy="812" grid="1" gridSize="10" guides="1" tooltips="1" connect="1" arrows="1" fold="1" page="1" pageScale="1" pageWidth="827" pageHeight="1169" math="0" shadow="0">
      <root>
        <mxCell id="0" />
        <mxCell id="1" parent="0" />
        <mxCell id="n6NZZfQcD2MK-yKBfSS9-13" value="" style="ellipse;shape=cloud;whiteSpace=wrap;html=1;" vertex="1" parent="1">
          <mxGeometry y="120" width="360" height="340" as="geometry" />
        </mxCell>
        <mxCell id="n6NZZfQcD2MK-yKBfSS9-1" value="H1" style="image;aspect=fixed;perimeter=ellipsePerimeter;html=1;align=center;shadow=0;dashed=0;spacingTop=3;image=img/lib/active_directory/mainframe_host.svg;" vertex="1" parent="1">
          <mxGeometry x="50" y="235" width="36" height="50" as="geometry" />
        </mxCell>
        <mxCell id="n6NZZfQcD2MK-yKBfSS9-2" value="S1" style="whiteSpace=wrap;html=1;aspect=fixed;" vertex="1" parent="1">
          <mxGeometry x="140" y="240" width="40" height="40" as="geometry" />
        </mxCell>
        <mxCell id="n6NZZfQcD2MK-yKBfSS9-3" value="S2" style="whiteSpace=wrap;html=1;aspect=fixed;" vertex="1" parent="1">
          <mxGeometry x="240" y="240" width="40" height="40" as="geometry" />
        </mxCell>
        <mxCell id="n6NZZfQcD2MK-yKBfSS9-5" value="S4" style="whiteSpace=wrap;html=1;aspect=fixed;" vertex="1" parent="1">
          <mxGeometry x="140" y="350" width="40" height="40" as="geometry" />
        </mxCell>
        <mxCell id="n6NZZfQcD2MK-yKBfSS9-6" value="S3" style="whiteSpace=wrap;html=1;aspect=fixed;" vertex="1" parent="1">
          <mxGeometry x="240" y="350" width="40" height="40" as="geometry" />
        </mxCell>
        <mxCell id="n6NZZfQcD2MK-yKBfSS9-8" value="" style="endArrow=none;html=1;rounded=0;" edge="1" parent="1" source="n6NZZfQcD2MK-yKBfSS9-5" target="n6NZZfQcD2MK-yKBfSS9-2">
          <mxGeometry width="50" height="50" relative="1" as="geometry">
            <mxPoint x="140" y="370" as="sourcePoint" />
            <mxPoint x="190" y="320" as="targetPoint" />
          </mxGeometry>
        </mxCell>
        <mxCell id="n6NZZfQcD2MK-yKBfSS9-9" value="" style="endArrow=none;html=1;rounded=0;" edge="1" parent="1" source="n6NZZfQcD2MK-yKBfSS9-2" target="n6NZZfQcD2MK-yKBfSS9-1">
          <mxGeometry width="50" height="50" relative="1" as="geometry">
            <mxPoint x="170" y="360" as="sourcePoint" />
            <mxPoint x="170" y="290" as="targetPoint" />
          </mxGeometry>
        </mxCell>
        <mxCell id="n6NZZfQcD2MK-yKBfSS9-10" value="" style="endArrow=none;html=1;rounded=0;" edge="1" parent="1" source="n6NZZfQcD2MK-yKBfSS9-3" target="n6NZZfQcD2MK-yKBfSS9-2">
          <mxGeometry width="50" height="50" relative="1" as="geometry">
            <mxPoint x="224" y="259.82" as="sourcePoint" />
            <mxPoint x="170" y="259.82" as="targetPoint" />
          </mxGeometry>
        </mxCell>
        <mxCell id="n6NZZfQcD2MK-yKBfSS9-11" value="" style="endArrow=none;html=1;rounded=0;" edge="1" parent="1" source="n6NZZfQcD2MK-yKBfSS9-3" target="n6NZZfQcD2MK-yKBfSS9-6">
          <mxGeometry width="50" height="50" relative="1" as="geometry">
            <mxPoint x="270" y="270" as="sourcePoint" />
            <mxPoint x="190" y="270" as="targetPoint" />
          </mxGeometry>
        </mxCell>
        <mxCell id="n6NZZfQcD2MK-yKBfSS9-12" value="" style="endArrow=none;html=1;rounded=0;" edge="1" parent="1" source="n6NZZfQcD2MK-yKBfSS9-6" target="n6NZZfQcD2MK-yKBfSS9-5">
          <mxGeometry width="50" height="50" relative="1" as="geometry">
            <mxPoint x="290" y="290" as="sourcePoint" />
            <mxPoint x="290" y="360" as="targetPoint" />
          </mxGeometry>
        </mxCell>
        <mxCell id="n6NZZfQcD2MK-yKBfSS9-25" value="" style="ellipse;shape=cloud;whiteSpace=wrap;html=1;" vertex="1" parent="1">
          <mxGeometry x="20" y="470" width="360" height="300" as="geometry" />
        </mxCell>
        <mxCell id="n6NZZfQcD2MK-yKBfSS9-26" value="H4" style="image;aspect=fixed;perimeter=ellipsePerimeter;html=1;align=center;shadow=0;dashed=0;spacingTop=3;image=img/lib/active_directory/mainframe_host.svg;" vertex="1" parent="1">
          <mxGeometry x="70" y="555" width="36" height="50" as="geometry" />
        </mxCell>
        <mxCell id="n6NZZfQcD2MK-yKBfSS9-27" value="S11" style="whiteSpace=wrap;html=1;aspect=fixed;" vertex="1" parent="1">
          <mxGeometry x="140" y="560" width="40" height="40" as="geometry" />
        </mxCell>
        <mxCell id="n6NZZfQcD2MK-yKBfSS9-28" value="S12" style="whiteSpace=wrap;html=1;aspect=fixed;" vertex="1" parent="1">
          <mxGeometry x="240" y="560" width="40" height="40" as="geometry" />
        </mxCell>
        <mxCell id="n6NZZfQcD2MK-yKBfSS9-30" value="S13" style="whiteSpace=wrap;html=1;aspect=fixed;" vertex="1" parent="1">
          <mxGeometry x="240" y="670" width="40" height="40" as="geometry" />
        </mxCell>
        <mxCell id="n6NZZfQcD2MK-yKBfSS9-31" value="" style="endArrow=none;html=1;rounded=0;" edge="1" parent="1" source="n6NZZfQcD2MK-yKBfSS9-30" target="n6NZZfQcD2MK-yKBfSS9-27">
          <mxGeometry width="50" height="50" relative="1" as="geometry">
            <mxPoint x="180" y="670" as="sourcePoint" />
            <mxPoint x="210" y="640" as="targetPoint" />
          </mxGeometry>
        </mxCell>
        <mxCell id="n6NZZfQcD2MK-yKBfSS9-32" value="" style="endArrow=none;html=1;rounded=0;" edge="1" parent="1" source="n6NZZfQcD2MK-yKBfSS9-27" target="n6NZZfQcD2MK-yKBfSS9-26">
          <mxGeometry width="50" height="50" relative="1" as="geometry">
            <mxPoint x="190" y="680" as="sourcePoint" />
            <mxPoint x="190" y="610" as="targetPoint" />
          </mxGeometry>
        </mxCell>
        <mxCell id="n6NZZfQcD2MK-yKBfSS9-33" value="" style="endArrow=none;html=1;rounded=0;" edge="1" parent="1" source="n6NZZfQcD2MK-yKBfSS9-28" target="n6NZZfQcD2MK-yKBfSS9-27">
          <mxGeometry width="50" height="50" relative="1" as="geometry">
            <mxPoint x="244" y="579.8199999999999" as="sourcePoint" />
            <mxPoint x="190" y="579.8199999999999" as="targetPoint" />
          </mxGeometry>
        </mxCell>
        <mxCell id="n6NZZfQcD2MK-yKBfSS9-34" value="" style="endArrow=none;html=1;rounded=0;" edge="1" parent="1" source="n6NZZfQcD2MK-yKBfSS9-28" target="n6NZZfQcD2MK-yKBfSS9-30">
          <mxGeometry width="50" height="50" relative="1" as="geometry">
            <mxPoint x="290" y="590" as="sourcePoint" />
            <mxPoint x="210" y="590" as="targetPoint" />
          </mxGeometry>
        </mxCell>
        <mxCell id="n6NZZfQcD2MK-yKBfSS9-36" value="" style="ellipse;shape=cloud;whiteSpace=wrap;html=1;" vertex="1" parent="1">
          <mxGeometry x="580" y="480" width="320" height="300" as="geometry" />
        </mxCell>
        <mxCell id="n6NZZfQcD2MK-yKBfSS9-37" value="H3" style="image;aspect=fixed;perimeter=ellipsePerimeter;html=1;align=center;shadow=0;dashed=0;spacingTop=3;image=img/lib/active_directory/mainframe_host.svg;" vertex="1" parent="1">
          <mxGeometry x="684" y="665" width="36" height="50" as="geometry" />
        </mxCell>
        <mxCell id="n6NZZfQcD2MK-yKBfSS9-38" value="S8" style="whiteSpace=wrap;html=1;aspect=fixed;" vertex="1" parent="1">
          <mxGeometry x="680" y="560" width="40" height="40" as="geometry" />
        </mxCell>
        <mxCell id="n6NZZfQcD2MK-yKBfSS9-39" value="S9" style="whiteSpace=wrap;html=1;aspect=fixed;" vertex="1" parent="1">
          <mxGeometry x="780" y="560" width="40" height="40" as="geometry" />
        </mxCell>
        <mxCell id="n6NZZfQcD2MK-yKBfSS9-40" value="S10" style="whiteSpace=wrap;html=1;aspect=fixed;" vertex="1" parent="1">
          <mxGeometry x="780" y="670" width="40" height="40" as="geometry" />
        </mxCell>
        <mxCell id="n6NZZfQcD2MK-yKBfSS9-41" value="" style="endArrow=none;html=1;rounded=0;" edge="1" parent="1" source="n6NZZfQcD2MK-yKBfSS9-40" target="n6NZZfQcD2MK-yKBfSS9-38">
          <mxGeometry width="50" height="50" relative="1" as="geometry">
            <mxPoint x="700" y="670" as="sourcePoint" />
            <mxPoint x="730" y="640" as="targetPoint" />
          </mxGeometry>
        </mxCell>
        <mxCell id="n6NZZfQcD2MK-yKBfSS9-42" value="" style="endArrow=none;html=1;rounded=0;" edge="1" parent="1" source="n6NZZfQcD2MK-yKBfSS9-40" target="n6NZZfQcD2MK-yKBfSS9-37">
          <mxGeometry width="50" height="50" relative="1" as="geometry">
            <mxPoint x="710" y="680" as="sourcePoint" />
            <mxPoint x="710" y="610" as="targetPoint" />
          </mxGeometry>
        </mxCell>
        <mxCell id="n6NZZfQcD2MK-yKBfSS9-43" value="" style="endArrow=none;html=1;rounded=0;" edge="1" parent="1" source="n6NZZfQcD2MK-yKBfSS9-39" target="n6NZZfQcD2MK-yKBfSS9-38">
          <mxGeometry width="50" height="50" relative="1" as="geometry">
            <mxPoint x="764" y="579.8199999999999" as="sourcePoint" />
            <mxPoint x="710" y="579.8199999999999" as="targetPoint" />
          </mxGeometry>
        </mxCell>
        <mxCell id="n6NZZfQcD2MK-yKBfSS9-44" value="" style="endArrow=none;html=1;rounded=0;" edge="1" parent="1" source="n6NZZfQcD2MK-yKBfSS9-39" target="n6NZZfQcD2MK-yKBfSS9-40">
          <mxGeometry width="50" height="50" relative="1" as="geometry">
            <mxPoint x="810" y="590" as="sourcePoint" />
            <mxPoint x="730" y="590" as="targetPoint" />
          </mxGeometry>
        </mxCell>
        <mxCell id="n6NZZfQcD2MK-yKBfSS9-46" value="" style="ellipse;shape=cloud;whiteSpace=wrap;html=1;" vertex="1" parent="1">
          <mxGeometry x="500" y="120" width="380" height="320" as="geometry" />
        </mxCell>
        <mxCell id="n6NZZfQcD2MK-yKBfSS9-47" value="H2" style="image;aspect=fixed;perimeter=ellipsePerimeter;html=1;align=center;shadow=0;dashed=0;spacingTop=3;image=img/lib/active_directory/mainframe_host.svg;" vertex="1" parent="1">
          <mxGeometry x="764" y="235" width="36" height="50" as="geometry" />
        </mxCell>
        <mxCell id="n6NZZfQcD2MK-yKBfSS9-48" value="S6" style="whiteSpace=wrap;html=1;aspect=fixed;" vertex="1" parent="1">
          <mxGeometry x="580" y="240" width="40" height="40" as="geometry" />
        </mxCell>
        <mxCell id="n6NZZfQcD2MK-yKBfSS9-49" value="S5" style="whiteSpace=wrap;html=1;aspect=fixed;" vertex="1" parent="1">
          <mxGeometry x="680" y="240" width="40" height="40" as="geometry" />
        </mxCell>
        <mxCell id="n6NZZfQcD2MK-yKBfSS9-50" value="S7" style="whiteSpace=wrap;html=1;aspect=fixed;" vertex="1" parent="1">
          <mxGeometry x="680" y="350" width="40" height="40" as="geometry" />
        </mxCell>
        <mxCell id="n6NZZfQcD2MK-yKBfSS9-51" value="" style="endArrow=none;html=1;rounded=0;" edge="1" parent="1" source="n6NZZfQcD2MK-yKBfSS9-50" target="n6NZZfQcD2MK-yKBfSS9-48">
          <mxGeometry width="50" height="50" relative="1" as="geometry">
            <mxPoint x="600" y="350" as="sourcePoint" />
            <mxPoint x="630" y="320" as="targetPoint" />
          </mxGeometry>
        </mxCell>
        <mxCell id="n6NZZfQcD2MK-yKBfSS9-52" value="" style="endArrow=none;html=1;rounded=0;" edge="1" parent="1" source="n6NZZfQcD2MK-yKBfSS9-49" target="n6NZZfQcD2MK-yKBfSS9-47">
          <mxGeometry width="50" height="50" relative="1" as="geometry">
            <mxPoint x="610" y="360" as="sourcePoint" />
            <mxPoint x="610" y="290" as="targetPoint" />
          </mxGeometry>
        </mxCell>
        <mxCell id="n6NZZfQcD2MK-yKBfSS9-53" value="" style="endArrow=none;html=1;rounded=0;" edge="1" parent="1" source="n6NZZfQcD2MK-yKBfSS9-49" target="n6NZZfQcD2MK-yKBfSS9-48">
          <mxGeometry width="50" height="50" relative="1" as="geometry">
            <mxPoint x="664" y="259.81999999999994" as="sourcePoint" />
            <mxPoint x="610" y="259.81999999999994" as="targetPoint" />
          </mxGeometry>
        </mxCell>
        <mxCell id="n6NZZfQcD2MK-yKBfSS9-54" value="" style="endArrow=none;html=1;rounded=0;" edge="1" parent="1" source="n6NZZfQcD2MK-yKBfSS9-49" target="n6NZZfQcD2MK-yKBfSS9-50">
          <mxGeometry width="50" height="50" relative="1" as="geometry">
            <mxPoint x="710" y="270" as="sourcePoint" />
            <mxPoint x="630" y="270" as="targetPoint" />
          </mxGeometry>
        </mxCell>
        <mxCell id="n6NZZfQcD2MK-yKBfSS9-56" value="" style="endArrow=none;html=1;rounded=0;" edge="1" parent="1" source="n6NZZfQcD2MK-yKBfSS9-3" target="n6NZZfQcD2MK-yKBfSS9-48">
          <mxGeometry width="50" height="50" relative="1" as="geometry">
            <mxPoint x="270" y="270" as="sourcePoint" />
            <mxPoint x="190" y="270" as="targetPoint" />
          </mxGeometry>
        </mxCell>
        <mxCell id="n6NZZfQcD2MK-yKBfSS9-57" value="" style="endArrow=none;html=1;rounded=0;" edge="1" parent="1" source="n6NZZfQcD2MK-yKBfSS9-28" target="n6NZZfQcD2MK-yKBfSS9-6">
          <mxGeometry width="50" height="50" relative="1" as="geometry">
            <mxPoint x="310" y="270" as="sourcePoint" />
            <mxPoint x="830" y="270" as="targetPoint" />
          </mxGeometry>
        </mxCell>
        <mxCell id="n6NZZfQcD2MK-yKBfSS9-58" value="" style="endArrow=none;html=1;rounded=0;" edge="1" parent="1" source="n6NZZfQcD2MK-yKBfSS9-27" target="n6NZZfQcD2MK-yKBfSS9-5">
          <mxGeometry width="50" height="50" relative="1" as="geometry">
            <mxPoint x="290" y="700" as="sourcePoint" />
            <mxPoint x="290" y="400" as="targetPoint" />
          </mxGeometry>
        </mxCell>
        <mxCell id="n6NZZfQcD2MK-yKBfSS9-60" value="" style="endArrow=none;html=1;rounded=0;" edge="1" parent="1" source="n6NZZfQcD2MK-yKBfSS9-28" target="n6NZZfQcD2MK-yKBfSS9-50">
          <mxGeometry width="50" height="50" relative="1" as="geometry">
            <mxPoint x="189" y="700" as="sourcePoint" />
            <mxPoint x="171" y="400" as="targetPoint" />
          </mxGeometry>
        </mxCell>
        <mxCell id="n6NZZfQcD2MK-yKBfSS9-61" value="" style="endArrow=none;html=1;rounded=0;" edge="1" parent="1" source="n6NZZfQcD2MK-yKBfSS9-28" target="n6NZZfQcD2MK-yKBfSS9-38">
          <mxGeometry width="50" height="50" relative="1" as="geometry">
            <mxPoint x="310" y="710" as="sourcePoint" />
            <mxPoint x="930" y="390" as="targetPoint" />
          </mxGeometry>
        </mxCell>
        <mxCell id="n6NZZfQcD2MK-yKBfSS9-63" value="" style="endArrow=none;html=1;rounded=0;" edge="1" parent="1" source="n6NZZfQcD2MK-yKBfSS9-38" target="n6NZZfQcD2MK-yKBfSS9-50">
          <mxGeometry width="50" height="50" relative="1" as="geometry">
            <mxPoint x="70" y="720" as="sourcePoint" />
            <mxPoint x="590" y="720" as="targetPoint" />
          </mxGeometry>
        </mxCell>
        <mxCell id="n6NZZfQcD2MK-yKBfSS9-64" value="" style="endArrow=none;html=1;rounded=0;" edge="1" parent="1" source="n6NZZfQcD2MK-yKBfSS9-30" target="n6NZZfQcD2MK-yKBfSS9-50">
          <mxGeometry width="50" height="50" relative="1" as="geometry">
            <mxPoint x="856" y="700" as="sourcePoint" />
            <mxPoint x="944" y="400" as="targetPoint" />
          </mxGeometry>
        </mxCell>
        <mxCell id="n6NZZfQcD2MK-yKBfSS9-65" value="" style="endArrow=none;html=1;rounded=0;" edge="1" parent="1" source="n6NZZfQcD2MK-yKBfSS9-6" target="n6NZZfQcD2MK-yKBfSS9-38">
          <mxGeometry width="50" height="50" relative="1" as="geometry">
            <mxPoint x="310" y="816" as="sourcePoint" />
            <mxPoint x="930" y="394" as="targetPoint" />
          </mxGeometry>
        </mxCell>
        <mxCell id="n6NZZfQcD2MK-yKBfSS9-66" value="fc00:2143::2/64" style="text;html=1;align=center;verticalAlign=middle;resizable=0;points=[];autosize=1;strokeColor=none;fillColor=none;" vertex="1" parent="1">
          <mxGeometry x="280" y="235" width="110" height="30" as="geometry" />
        </mxCell>
        <mxCell id="n6NZZfQcD2MK-yKBfSS9-67" value="fc00:2143::6/64" style="text;html=1;align=center;verticalAlign=middle;resizable=0;points=[];autosize=1;strokeColor=none;fillColor=none;" vertex="1" parent="1">
          <mxGeometry x="480" y="235" width="110" height="30" as="geometry" />
        </mxCell>
        <mxCell id="n6NZZfQcD2MK-yKBfSS9-68" value="&lt;div&gt;fc00:2143::3/64&lt;/div&gt;" style="text;html=1;align=center;verticalAlign=middle;resizable=0;points=[];autosize=1;strokeColor=none;fillColor=none;rotation=25;" vertex="1" parent="1">
          <mxGeometry x="280" y="380" width="110" height="30" as="geometry" />
        </mxCell>
        <mxCell id="n6NZZfQcD2MK-yKBfSS9-69" value="&lt;div&gt;fc00:2143::8/64&lt;/div&gt;" style="text;html=1;align=center;verticalAlign=middle;resizable=0;points=[];autosize=1;strokeColor=none;fillColor=none;rotation=30;" vertex="1" parent="1">
          <mxGeometry x="574" y="520" width="110" height="30" as="geometry" />
        </mxCell>
        <mxCell id="n6NZZfQcD2MK-yKBfSS9-70" value="&lt;div&gt;fc00:2144::8/64&lt;/div&gt;" style="text;html=1;align=center;verticalAlign=middle;resizable=0;points=[];autosize=1;strokeColor=none;fillColor=none;rotation=90;" vertex="1" parent="1">
          <mxGeometry x="654" y="490" width="110" height="30" as="geometry" />
        </mxCell>
        <mxCell id="n6NZZfQcD2MK-yKBfSS9-71" value="&lt;div&gt;fc00:2144::7/64&lt;/div&gt;" style="text;html=1;align=center;verticalAlign=middle;resizable=0;points=[];autosize=1;strokeColor=none;fillColor=none;rotation=-90;" vertex="1" parent="1">
          <mxGeometry x="635" y="420" width="110" height="30" as="geometry" />
        </mxCell>
        <mxCell id="n6NZZfQcD2MK-yKBfSS9-72" value="fc00:2143::4/64" style="text;html=1;align=center;verticalAlign=middle;resizable=0;points=[];autosize=1;strokeColor=none;fillColor=none;rotation=-90;" vertex="1" parent="1">
          <mxGeometry x="100" y="420" width="110" height="30" as="geometry" />
        </mxCell>
        <mxCell id="n6NZZfQcD2MK-yKBfSS9-74" value="fc00:2143::11/64" style="text;html=1;align=center;verticalAlign=middle;resizable=0;points=[];autosize=1;strokeColor=none;fillColor=none;rotation=90;" vertex="1" parent="1">
          <mxGeometry x="115" y="499" width="110" height="30" as="geometry" />
        </mxCell>
        <mxCell id="n6NZZfQcD2MK-yKBfSS9-75" value="&lt;div&gt;fc00:2146::7/64&lt;/div&gt;" style="text;html=1;align=center;verticalAlign=middle;resizable=0;points=[];autosize=1;strokeColor=none;fillColor=none;rotation=-35;" vertex="1" parent="1">
          <mxGeometry x="560" y="410" width="110" height="30" as="geometry" />
        </mxCell>
        <mxCell id="n6NZZfQcD2MK-yKBfSS9-76" value="&lt;div&gt;fc00:2147::7/64&lt;/div&gt;" style="text;html=1;align=center;verticalAlign=middle;resizable=0;points=[];autosize=1;strokeColor=none;fillColor=none;rotation=-25;" vertex="1" parent="1">
          <mxGeometry x="570" y="380" width="110" height="30" as="geometry" />
        </mxCell>
        <mxCell id="n6NZZfQcD2MK-yKBfSS9-77" value="&lt;div&gt;fc00:2146::13/64&lt;/div&gt;" style="text;html=1;align=center;verticalAlign=middle;resizable=0;points=[];autosize=1;strokeColor=none;fillColor=none;rotation=-35;" vertex="1" parent="1">
          <mxGeometry x="261" y="626" width="110" height="30" as="geometry" />
        </mxCell>
        <mxCell id="n6NZZfQcD2MK-yKBfSS9-78" value="fc00:2145::3/64" style="text;html=1;align=center;verticalAlign=middle;resizable=0;points=[];autosize=1;strokeColor=none;fillColor=none;rotation=-90;" vertex="1" parent="1">
          <mxGeometry x="200" y="420" width="110" height="30" as="geometry" />
        </mxCell>
        <mxCell id="n6NZZfQcD2MK-yKBfSS9-79" value="fc00:2145::12/64" style="text;html=1;align=center;verticalAlign=middle;resizable=0;points=[];autosize=1;strokeColor=none;fillColor=none;rotation=90;" vertex="1" parent="1">
          <mxGeometry x="212" y="499" width="110" height="30" as="geometry" />
        </mxCell>
        <mxCell id="n6NZZfQcD2MK-yKBfSS9-80" value="&lt;div&gt;fc00:2147::12/64&lt;/div&gt;" style="text;html=1;align=center;verticalAlign=middle;resizable=0;points=[];autosize=1;strokeColor=none;fillColor=none;rotation=-25;" vertex="1" parent="1">
          <mxGeometry x="270" y="525" width="110" height="30" as="geometry" />
        </mxCell>
        <mxCell id="n6NZZfQcD2MK-yKBfSS9-81" value="&lt;div&gt;fc00:2148::12/64&lt;/div&gt;" style="text;html=1;align=center;verticalAlign=middle;resizable=0;points=[];autosize=1;strokeColor=none;fillColor=none;rotation=0;" vertex="1" parent="1">
          <mxGeometry x="290" y="555" width="110" height="30" as="geometry" />
        </mxCell>
        <mxCell id="n6NZZfQcD2MK-yKBfSS9-82" value="&lt;div&gt;fc00:2148::8/64&lt;/div&gt;" style="text;html=1;align=center;verticalAlign=middle;resizable=0;points=[];autosize=1;strokeColor=none;fillColor=none;rotation=0;" vertex="1" parent="1">
          <mxGeometry x="574" y="575" width="110" height="30" as="geometry" />
        </mxCell>
      </root>
    </mxGraphModel>
  </diagram>
</mxfile>
